<svg xmlns="http://www.w3.org/2000/svg" xmlns:xlink="http://www.w3.org/1999/xlink" width="28" height="28" viewBox="0 0 28 28">
  <defs>
    <clipPath id="clip-path">
      <rect id="Rectangle_19108" data-name="Rectangle 19108" width="28" height="28" transform="translate(184 746)" fill="#fff" stroke="#707070" stroke-width="1"/>
    </clipPath>
  </defs>
  <g id="Mask_Group_15257" data-name="Mask Group 15257" transform="translate(-184 -746)" clip-path="url(#clip-path)">
    <path id="at_1_" data-name="at (1)" d="M14,0a14,14,0,1,0,8.274,25.295L20.2,22.472A10.5,10.5,0,1,1,24.5,14v1.75a1.75,1.75,0,1,1-3.5,0V14a7.027,7.027,0,1,0-2.242,5.119A5.227,5.227,0,0,0,28,15.75V14A14.015,14.015,0,0,0,14,0Zm0,17.5A3.5,3.5,0,1,1,17.5,14,3.5,3.5,0,0,1,14,17.5Z" transform="translate(184 746)" fill="#fff"/>
  </g>
</svg>
