<svg id="Component_353_6" data-name="Component 353 – 6" xmlns="http://www.w3.org/2000/svg" xmlns:xlink="http://www.w3.org/1999/xlink" width="32" height="32" viewBox="0 0 32 32">
  <defs>
    <clipPath id="clip-path">
      <rect id="Rectangle_18919" data-name="Rectangle 18919" width="32" height="32" fill="#fff" stroke="#707070" stroke-width="1"/>
    </clipPath>
  </defs>
  <g id="Mask_Group_15247" data-name="Mask Group 15247" clip-path="url(#clip-path)">
    <path id="facebook_3_" data-name="facebook (3)" d="M11.246,32H6.122a1.554,1.554,0,0,1-1.552-1.552V18.889H1.58A1.554,1.554,0,0,1,.027,17.337V12.384A1.554,1.554,0,0,1,1.58,10.832h2.99V8.352A8.445,8.445,0,0,1,6.8,2.3,8.043,8.043,0,0,1,12.732,0L16.64.006a1.554,1.554,0,0,1,1.55,1.552v4.6a1.554,1.554,0,0,1-1.552,1.552H14.007c-.8,0-1.007.161-1.051.21-.072.082-.158.313-.158.951v1.959H16.44a1.578,1.578,0,0,1,.768.2,1.558,1.558,0,0,1,.8,1.358l0,4.953a1.554,1.554,0,0,1-1.552,1.552H12.8V30.448A1.554,1.554,0,0,1,11.246,32Zm-4.8-1.876h4.477V18.049a1.038,1.038,0,0,1,1.036-1.036h4.17l0-4.305H11.958a1.037,1.037,0,0,1-1.036-1.036v-2.8a3.2,3.2,0,0,1,.628-2.193,3.18,3.18,0,0,1,2.456-.845h2.308V1.882l-3.583-.006c-3.876,0-6.285,2.481-6.285,6.476v3.32a1.038,1.038,0,0,1-1.036,1.036H1.9v4.305H5.409a1.037,1.037,0,0,1,1.036,1.036ZM16.637,1.882h0Zm0,0" transform="translate(6.892)" fill="#fff"/>
  </g>
</svg>
