<svg xmlns="http://www.w3.org/2000/svg" xmlns:xlink="http://www.w3.org/1999/xlink" width="248.463" height="133.583" viewBox="0 0 248.463 133.583">
  <defs>
    <linearGradient id="linear-gradient" x1="0.334" y1="0.078" x2="0.922" y2="0.666" gradientUnits="objectBoundingBox">
      <stop offset="0" stop-color="#00852c"/>
      <stop offset="1" stop-color="#00852c"/>
    </linearGradient>
  </defs>
  <g id="Group_16767" data-name="Group 16767" transform="translate(-1351.537 -1022.417)">
    <path id="Path_52032" data-name="Path 52032" d="M2065.106,1300.745l.431-.75a82.166,82.166,0,0,1,6.628,7.319l-.5.678A80.976,80.976,0,0,0,2065.106,1300.745Zm-.073,33.366.137-.911a52.642,52.642,0,0,0,8.553,1.322l-.039.935A52.947,52.947,0,0,1,2065.034,1334.112Zm-15.262-42.873.117-.924a25.03,25.03,0,0,1,8.263,3.674l-.325.839A24.393,24.393,0,0,0,2049.771,1291.239Zm42.813,52.282c-1.4-3.1-2.859-6.146-4.326-9.048a53.735,53.735,0,0,1-5.874.885l-.051-.937a52.766,52.766,0,0,0,8.534-1.518l.144.92q-.982.258-1.974.48c1.415,2.809,2.815,5.744,4.172,8.74Zm-14.968-27.417.545-.618c1.833,2.732,3.671,5.682,5.461,8.772l-.579.564C2081.265,1321.749,2079.433,1318.816,2077.617,1316.1Zm-41.361-15.651-.685-.3c1.032-3.981,2.978-6.964,5.627-8.623l.313.844C2039.04,1293.924,2037.229,1296.716,2036.255,1300.452Zm-.2,10.986.659-.376a26.361,26.361,0,0,0,5.138,8.693l-.479.7A27.053,27.053,0,0,1,2036.06,1311.438ZM2056.6,1331.3a46.921,46.921,0,0,1-8.02-4.441l.342-.829a46.24,46.24,0,0,0,7.906,4.381Zm119.947-40.253.144-.911a68.094,68.094,0,0,1,8.417,2.844l-.216.894A67.758,67.758,0,0,0,2176.549,1291.048Zm-34.1,2.531a44.227,44.227,0,0,1,8.3-3.459l.164.911a43.368,43.368,0,0,0-8.184,3.412Zm16.965-4.166-.048-.936c1.286-.111,2.6-.167,3.912-.167,1.569,0,3.182.08,4.793.24l-.056.936A46.67,46.67,0,0,0,2159.412,1289.413Zm-58.73,73.941c-1.264-3.427-2.572-6.8-3.885-10.03l.637-.437c1.32,3.239,2.632,6.625,3.9,10.062Zm115.916-65.262c-2.985-1.107-4.245,11.06-6.742,9.09l.437.771c2.511,1.973,4.362-11.257,6.675-9.124ZM2193,1297.73l.278-.864c2.615,1.417,5.268,3.021,7.885,4.765l-.33.833C2198.238,1300.724,2195.6,1299.14,2193,1297.73Zm-65.305,7.758a62.376,62.376,0,0,1,7.015-6.7l.383.794a61.839,61.839,0,0,0-6.927,6.624Zm-28.521,24.488a58,58,0,0,0,7.937-4.325l.325.838a58.44,58.44,0,0,1-8.028,4.374Zm15.365-9.978a73.416,73.416,0,0,0,6.8-6.858l.479.7a74.5,74.5,0,0,1-6.873,6.931Z" transform="translate(-684.033 -207.354)" fill="#a8b2c7"/>
    <g id="message" transform="translate(1528.791 1020.708)" opacity="0.54">
      <path id="Path_52229" data-name="Path 52229" d="M67.46,2.67l-42.1,42.1L3.951,33.113a2.43,2.43,0,0,1,.219-4.4Z" transform="translate(1.412 1.375)" fill="#dfdfdf"/>
      <path id="Path_52230" data-name="Path 52230" d="M54.1,2.67,12,44.774l11.565,21.5a2.43,2.43,0,0,0,4.4-.219Z" transform="translate(14.768 1.375)" fill="#dfdfdf"/>
      <path id="Path_52231" data-name="Path 52231" d="M40.568,71.247A4.859,4.859,0,0,1,36.291,68.7l-11.565-21.5a2.43,2.43,0,0,1,.413-2.867L67.171,2.417a2.43,2.43,0,0,1,3.96,2.43L45.062,68.016a4.859,4.859,0,0,1-4.252,3.013ZM29.853,46.49l10.714,19.9L62.021,14.347Zm-3.086,2.089a2.43,2.43,0,0,1-1.142-.292L4.221,36.626a4.859,4.859,0,0,1,.462-8.771L68.07,1.786a2.43,2.43,0,0,1,2.43,3.96L28.59,47.777A2.43,2.43,0,0,1,26.768,48.579Zm31.8-37.658L6.529,32.35l19.9,10.714Z" transform="translate(0 0)" fill="url(#linear-gradient)"/>
    </g>
  </g>
</svg>
