<svg xmlns="http://www.w3.org/2000/svg" xmlns:xlink="http://www.w3.org/1999/xlink" width="20" height="20" viewBox="0 0 20 20">
  <defs>
    <clipPath id="clip-path">
      <rect id="Rectangle_19129" data-name="Rectangle 19129" width="20" height="20" transform="translate(216 270)" fill="#101010" stroke="#707070" stroke-width="1"/>
    </clipPath>
  </defs>
  <g id="Mask_Group_15262" data-name="Mask Group 15262" transform="translate(-216 -270)" clip-path="url(#clip-path)">
    <path id="share_5_" data-name="share (5)" d="M21.111,16.667a1.027,1.027,0,0,1,.331-.78,1.067,1.067,0,0,1,.78-.331,1.132,1.132,0,0,1,1.111,1.111v2.222a4.474,4.474,0,0,1-.585,2.242,4.394,4.394,0,0,1-3.86,2.2H7.778a4.474,4.474,0,0,1-2.242-.585,4.594,4.594,0,0,1-1.618-1.618,4.474,4.474,0,0,1-.585-2.242V7.778a4.394,4.394,0,0,1,2.2-3.86,4.474,4.474,0,0,1,2.242-.585H10a1.026,1.026,0,0,1,.78.331,1.026,1.026,0,0,1,.331.78,1.067,1.067,0,0,1-.331.78,1.026,1.026,0,0,1-.78.331H7.778A2.214,2.214,0,0,0,6.14,6.14a2.214,2.214,0,0,0-.585,1.637V18.889a2.214,2.214,0,0,0,.585,1.637,2.213,2.213,0,0,0,1.637.585H18.889a2.031,2.031,0,0,0,2.222-2.222Zm-9.22-.331a.989.989,0,0,1-.78.331A1.132,1.132,0,0,1,10,15.556a.989.989,0,0,1,.331-.78L21.442,3.665a1.083,1.083,0,0,1,1.56,0,1.026,1.026,0,0,1,.331.78,1.026,1.026,0,0,1-.331.78Zm11.442-5.224a1.067,1.067,0,0,1-.331.78,1.027,1.027,0,0,1-.78.331,1.132,1.132,0,0,1-1.111-1.111V4.6q0-.1.273.156a3.359,3.359,0,0,1,.526.526q.253.273.156.273H15.556a1.132,1.132,0,0,1-1.111-1.111,1.026,1.026,0,0,1,.331-.78,1.067,1.067,0,0,1,.78-.331h6.511A1.264,1.264,0,0,1,23.333,4.6Z" transform="translate(212.666 266.666)" fill="#101010"/>
  </g>
</svg>
