<svg xmlns="http://www.w3.org/2000/svg" xmlns:xlink="http://www.w3.org/1999/xlink" width="16" height="16" viewBox="0 0 16 16">
  <defs>
    <clipPath id="clip-path">
      <rect id="Rectangle_5856" data-name="Rectangle 5856" width="16" height="16" transform="translate(1154 12012)" fill="#101010" stroke="#707070" stroke-width="1"/>
    </clipPath>
  </defs>
  <g id="Mask_Group_15239" data-name="Mask Group 15239" transform="translate(-1154 -12012)" opacity="0" clip-path="url(#clip-path)">
    <path id="cross-small_5_" data-name="cross-small (5)" d="M22.883,7.628h0a1.271,1.271,0,0,0-1.8,0l-5.83,5.83-5.83-5.83a1.271,1.271,0,0,0-1.8,0h0a1.271,1.271,0,0,0,0,1.8l5.83,5.83-5.83,5.83a1.271,1.271,0,0,0,0,1.8h0a1.271,1.271,0,0,0,1.8,0l5.83-5.83,5.83,5.83a1.271,1.271,0,0,0,1.8,0h0a1.271,1.271,0,0,0,0-1.8l-5.83-5.83,5.83-5.83A1.271,1.271,0,0,0,22.883,7.628Z" transform="translate(1146.744 12004.744)" fill="#101010"/>
  </g>
</svg>
