<svg id="Component_356_6" data-name="Component 356 – 6" xmlns="http://www.w3.org/2000/svg" xmlns:xlink="http://www.w3.org/1999/xlink" width="32" height="32" viewBox="0 0 32 32">
  <defs>
    <clipPath id="clip-path">
      <rect id="Rectangle_18921" data-name="Rectangle 18921" width="32" height="32" fill="#fff" stroke="#707070" stroke-width="1"/>
    </clipPath>
  </defs>
  <g id="Mask_Group_15250" data-name="Mask Group 15250" clip-path="url(#clip-path)">
    <path id="whatsapp_9_" data-name="whatsapp (9)" d="M27.218,4.65A15.861,15.861,0,0,0,2.261,23.783L.011,32l8.406-2.205a15.84,15.84,0,0,0,7.578,1.93H16A15.864,15.864,0,0,0,27.218,4.65ZM16,29.047H16A13.163,13.163,0,0,1,9.288,27.21l-.481-.286L3.818,28.233,5.15,23.369l-.313-.5A13.18,13.18,0,1,1,16,29.047Zm7.229-9.871c-.4-.2-2.344-1.157-2.707-1.289s-.627-.2-.891.2-1.023,1.289-1.255,1.553-.462.3-.858.1a10.822,10.822,0,0,1-3.186-1.967,11.951,11.951,0,0,1-2.2-2.745c-.231-.4,0-.591.174-.809a11.207,11.207,0,0,0,.99-1.355.729.729,0,0,0-.033-.694c-.1-.2-.891-2.148-1.221-2.942-.322-.772-.648-.668-.892-.68s-.5-.014-.759-.014a1.455,1.455,0,0,0-1.057.5,4.444,4.444,0,0,0-1.387,3.305,7.707,7.707,0,0,0,1.618,4.1c.2.264,2.794,4.266,6.768,5.982a22.678,22.678,0,0,0,2.259.835,5.432,5.432,0,0,0,2.5.157,4.082,4.082,0,0,0,2.674-1.884,3.311,3.311,0,0,0,.231-1.884c-.1-.165-.363-.264-.759-.463Zm0,0" transform="translate(0.066)" fill="#fff" fill-rule="evenodd"/>
  </g>
</svg>
