<svg xmlns="http://www.w3.org/2000/svg" xmlns:xlink="http://www.w3.org/1999/xlink" width="24" height="24" viewBox="0 0 24 24">
  <defs>
    <clipPath id="clip-path">
      <rect id="Rectangle_5102" data-name="Rectangle 5102" width="24" height="24" fill="#0ca94b" stroke="#707070" stroke-width="1"/>
    </clipPath>
  </defs>
  <g id="Mask_Group_14723" data-name="Mask Group 14723" clip-path="url(#clip-path)">
    <g id="robot" transform="translate(1.928)">
      <path id="Path_25096" data-name="Path 25096" d="M12,12.161c-2.543,0-4.6.317-4.6.708s2.061.8,4.6.8,4.6-.414,4.6-.8S14.543,12.161,12,12.161Z" transform="translate(-1.928)" fill="#ddd"/>
      <g id="Group_15029" data-name="Group 15029" transform="translate(0 3.645)">
        <path id="Path_25097" data-name="Path 25097" d="M9.569,12.268c-3.147.3-2.688.994.224,1.3C8.463,13.2,8.189,12.65,9.569,12.268Z" transform="translate(-1.928 -3.645)" fill="#bfc0c1"/>
        <path id="Path_25098" data-name="Path 25098" d="M4.055,3.645H2.508a.581.581,0,0,0-.58.58V6.511a.581.581,0,0,0,.58.58H4A5.412,5.412,0,0,1,4.055,3.645Z" transform="translate(-1.928 -3.645)" fill="#bfc0c1"/>
      </g>
      <path id="Path_25099" data-name="Path 25099" d="M2.924,6.511V4.225a.581.581,0,0,1,.58-.58h-1a.581.581,0,0,0-.58.58V6.511a.581.581,0,0,0,.58.58h1A.581.581,0,0,1,2.924,6.511Z" transform="translate(-1.928)" fill="#989da0"/>
      <path id="Path_25100" data-name="Path 25100" d="M21.492,3.645H19.945A5.412,5.412,0,0,1,20,7.09h1.5a.581.581,0,0,0,.58-.58V4.225A.581.581,0,0,0,21.492,3.645Z" transform="translate(-1.928)" fill="#bfc0c1"/>
      <path id="Path_25101" data-name="Path 25101" d="M21.105,3.645h-1.16A5.412,5.412,0,0,1,20,7.09h1.16A5.412,5.412,0,0,0,21.105,3.645Z" transform="translate(-1.928)" fill="#989da0"/>
      <path id="Path_25102" data-name="Path 25102" d="M20.349,5.442A5.458,5.458,0,0,0,14.907,0H9.093a5.442,5.442,0,0,0,0,10.885h5.813A5.459,5.459,0,0,0,20.349,5.442Z" transform="translate(-1.928)" fill="#ddd"/>
      <path id="Path_25103" data-name="Path 25103" d="M4.646,5.442h0A5.458,5.458,0,0,1,10.089,0h-1a5.442,5.442,0,0,0,0,10.885h1A5.459,5.459,0,0,1,4.646,5.442Z" transform="translate(-1.928)" fill="#bfc0c1"/>
      <path id="Path_25104" data-name="Path 25104" d="M14.665,1.627H9.335A3.826,3.826,0,0,0,5.519,5.442h0A3.826,3.826,0,0,0,9.335,9.258h5.331a3.826,3.826,0,0,0,3.815-3.815h0A3.826,3.826,0,0,0,14.665,1.627Z" transform="translate(-1.928)" fill="#585a60"/>
      <path id="Path_25105" data-name="Path 25105" d="M6.529,5.442h0a3.826,3.826,0,0,1,3.815-3.815H9.32A3.826,3.826,0,0,0,5.5,5.442h0A3.826,3.826,0,0,0,9.32,9.258h1.024A3.826,3.826,0,0,1,6.529,5.442Z" transform="translate(-1.928)" fill="#414356"/>
      <g id="Group_15030" data-name="Group 15030" transform="translate(6.109 4.016)">
        <circle id="Ellipse_465" data-name="Ellipse 465" cx="1.352" cy="1.352" r="1.352" transform="translate(0)" fill="#6edcf9"/>
        <circle id="Ellipse_466" data-name="Ellipse 466" cx="1.352" cy="1.352" r="1.352" transform="translate(5.221)" fill="#6edcf9"/>
      </g>
      <g id="Group_15031" data-name="Group 15031" transform="translate(6.109 4.016)">
        <path id="Path_25106" data-name="Path 25106" d="M9.032,5.368a1.352,1.352,0,0,1,.854-1.257,1.352,1.352,0,1,0,0,2.514A1.352,1.352,0,0,1,9.032,5.368Z" transform="translate(-8.037 -4.016)" fill="#52c7e2"/>
        <path id="Path_25107" data-name="Path 25107" d="M15.109,4.111a1.352,1.352,0,1,0,0,2.514A1.353,1.353,0,0,1,15.109,4.111Z" transform="translate(-8.037 -4.016)" fill="#52c7e2"/>
      </g>
      <path id="Path_25108" data-name="Path 25108" d="M16.564,12.776a.144.144,0,0,1,.04.094c0,.391-2.061.708-4.6.708-2.776,0-4.93-.376-4.564-.8a6.54,6.54,0,1,0,9.127,0Z" transform="translate(-1.928)" fill="#ddd"/>
      <path id="Path_25109" data-name="Path 25109" d="M8.013,13.224c-.274-.073-.761-.233-.577-.448A6.54,6.54,0,0,0,12,24q.251,0,.5-.019A6.546,6.546,0,0,1,8.013,13.224Z" transform="translate(-1.928)" fill="#bfc0c1"/>
      <path id="Path_25110" data-name="Path 25110" d="M9.967,15.151c.025.261.033.212,1.623,1.908a.581.581,0,0,0,.82,0c1.591-1.7,1.6-1.646,1.623-1.908A23.253,23.253,0,0,1,9.967,15.151Z" transform="translate(-1.928)" fill="#f7ac16"/>
      <path id="Path_25111" data-name="Path 25111" d="M11.09,15.222c-.383-.015-.758-.039-1.123-.071.025.261.033.212,1.623,1.908a.581.581,0,0,0,.82,0l.146-.155C11.113,15.365,11.136,15.428,11.09,15.222Z" transform="translate(-1.928)" fill="#ef9614"/>
      <path id="Path_25112" data-name="Path 25112" d="M17.819,14.473a6.564,6.564,0,0,0-1.256-1.7.144.144,0,0,1,.04.094c0,.391-2.061.708-4.6.708-2.776,0-4.93-.376-4.564-.8a6.563,6.563,0,0,0-1.256,1.7A20.139,20.139,0,0,0,17.819,14.473Z" transform="translate(-1.928)" fill="#989da0"/>
      <path id="Path_25113" data-name="Path 25113" d="M6.181,14.473c.267.1.556.188.864.271a6.55,6.55,0,0,1,.969-1.521c-.273-.073-.761-.234-.577-.448A6.582,6.582,0,0,0,6.181,14.473Z" transform="translate(-1.928)" fill="#838384"/>
    </g>
  </g>
</svg>
