<svg xmlns="http://www.w3.org/2000/svg" xmlns:xlink="http://www.w3.org/1999/xlink" width="40" height="40" viewBox="0 0 40 40">
  <defs>
    <clipPath id="clip-path">
      <rect id="Rectangle_19038" data-name="Rectangle 19038" width="40" height="40" fill="#101010" stroke="#707070" stroke-width="1"/>
    </clipPath>
  </defs>
  <g id="Mask_Group_15189" data-name="Mask Group 15189" clip-path="url(#clip-path)">
    <path id="circle-xmark_11_" data-name="circle-xmark (11)" d="M19.526,0A19.526,19.526,0,1,0,39.052,19.526,19.548,19.548,0,0,0,19.526,0Zm6.032,23.257a1.627,1.627,0,1,1-2.3,2.3l-3.731-3.731-3.731,3.731a1.627,1.627,0,0,1-2.3-2.3l3.731-3.731-3.731-3.731a1.627,1.627,0,0,1,2.3-2.3l3.731,3.731,3.731-3.731a1.627,1.627,0,0,1,2.3,2.3l-3.731,3.731,3.731,3.731Z" transform="translate(0.115)" fill="#101010"/>
  </g>
</svg>
